<svg xmlns="http://www.w3.org/2000/svg" xmlns:xlink="http://www.w3.org/1999/xlink" viewBox="0 0 345.63 130.54"><defs><style>.cls-1{fill:#f2f3f5;}.cls-2{fill:none;}.cls-3{fill:url(#Degradado_sin_nombre_19);}.cls-4{fill:url(#Degradado_sin_nombre_19-2);}.cls-5{fill:url(#Degradado_sin_nombre_19-3);}.cls-6{fill:url(#Degradado_sin_nombre_19-4);}.cls-7{fill:#ee7121;}.cls-8{fill:url(#Degradado_sin_nombre_19-5);}</style><linearGradient id="Degradado_sin_nombre_19" x1="135.79" y1="88.78" x2="162.07" y2="88.78" gradientUnits="userSpaceOnUse"><stop offset="0" stop-color="#f6a117"/><stop offset="0.11" stop-color="#f69f18"/><stop offset="0.17" stop-color="#f4971c"/><stop offset="0.31" stop-color="#f3931d"/><stop offset="0.44" stop-color="#f18821"/><stop offset="0.47" stop-color="#f08322"/></linearGradient><linearGradient id="Degradado_sin_nombre_19-2" x1="168.75" y1="88.78" x2="195.27" y2="88.78" xlink:href="#Degradado_sin_nombre_19"/><linearGradient id="Degradado_sin_nombre_19-3" x1="202.15" y1="88.78" x2="231.27" y2="88.78" xlink:href="#Degradado_sin_nombre_19"/><linearGradient id="Degradado_sin_nombre_19-4" x1="145.33" y1="13.89" x2="210.7" y2="13.89" xlink:href="#Degradado_sin_nombre_19"/><linearGradient id="Degradado_sin_nombre_19-5" x1="146.68" y1="37.54" x2="186.14" y2="37.54" xlink:href="#Degradado_sin_nombre_19"/></defs><g id="Capa_2" data-name="Capa 2"><g id="Capa_1-2" data-name="Capa 1"><path class="cls-1" d="M23.21,98.65a10.72,10.72,0,0,1-5.06,1.1A9.52,9.52,0,0,1,14,98.87a9.75,9.75,0,0,1-3.19-2.36A11.17,11.17,0,0,1,8.77,93,12,12,0,0,1,8,88.78v-.1a11.69,11.69,0,0,1,.74-4.21A10.89,10.89,0,0,1,10.87,81a9.57,9.57,0,0,1,3.21-2.34,9.67,9.67,0,0,1,4.07-.85,10.6,10.6,0,0,1,4.76,1,18.5,18.5,0,0,1,4.16,2.89L32,76.12a21.14,21.14,0,0,0-2.6-2.2,15.71,15.71,0,0,0-3-1.69,18.71,18.71,0,0,0-3.66-1.1,23.62,23.62,0,0,0-4.46-.4,18.75,18.75,0,0,0-7.38,1.42A17.5,17.5,0,0,0,5.08,76,18.18,18.18,0,0,0,0,88.78v.1a18.37,18.37,0,0,0,1.35,7,17.11,17.11,0,0,0,9.42,9.52,18.07,18.07,0,0,0,7.13,1.4,22.78,22.78,0,0,0,4.58-.43,16.68,16.68,0,0,0,3.77-1.24,17,17,0,0,0,3.16-2,24.17,24.17,0,0,0,2.79-2.6l-4.88-4.93A19.86,19.86,0,0,1,23.21,98.65Z"/><path class="cls-1" d="M68.62,101.52a18,18,0,0,0,3.86-5.74,17.44,17.44,0,0,0,1.4-7v-.1a18,18,0,0,0-1.37-7A17.08,17.08,0,0,0,68.67,76a18.51,18.51,0,0,0-5.86-3.84,19.12,19.12,0,0,0-7.42-1.42,19.36,19.36,0,0,0-7.46,1.42,17.85,17.85,0,0,0-9.74,9.62,17.69,17.69,0,0,0-1.4,7v.1a17.94,17.94,0,0,0,1.37,7A17.28,17.28,0,0,0,42,101.57a18.43,18.43,0,0,0,5.86,3.83,19,19,0,0,0,7.43,1.43,19.17,19.17,0,0,0,7.45-1.43A17.94,17.94,0,0,0,68.62,101.52ZM55.39,99.75a10.07,10.07,0,0,1-4.27-.88,10.71,10.71,0,0,1-3.34-2.36A10.59,10.59,0,0,1,45.59,93a11.56,11.56,0,0,1-.77-4.24v-.1a11.29,11.29,0,0,1,.77-4.21A11,11,0,0,1,47.73,81,9.68,9.68,0,0,1,51,78.66a10.37,10.37,0,0,1,4.27-.85,10.23,10.23,0,0,1,4.23.87,10.64,10.64,0,0,1,3.37,2.37,10.43,10.43,0,0,1,2.19,3.49,11.52,11.52,0,0,1,.77,4.24v.1a11.33,11.33,0,0,1-.77,4.21,11.1,11.1,0,0,1-2.14,3.47,9.89,9.89,0,0,1-3.32,2.34A10.55,10.55,0,0,1,55.39,99.75Z"/><polygon class="cls-1" points="88.29 84.04 105.19 106.23 111.72 106.23 111.72 71.33 104.14 71.33 104.14 92.82 87.79 71.33 80.71 71.33 80.71 106.23 88.29 106.23 88.29 84.04"/><rect class="cls-1" x="120.44" y="71.33" width="7.68" height="34.9"/><path class="cls-1" d="M269.48,99.07a6.67,6.67,0,0,1-3.72.88,13.23,13.23,0,0,1-5.51-1.15,23.31,23.31,0,0,1-4.91-3.09l-4.53,5.43a20.51,20.51,0,0,0,7,4.21,22.89,22.89,0,0,0,7.82,1.38,17.52,17.52,0,0,0,5.18-.73,11.81,11.81,0,0,0,4-2.09,9.41,9.41,0,0,0,2.62-3.39,10.76,10.76,0,0,0,.94-4.61v-.1a9.8,9.8,0,0,0-.72-3.94A8,8,0,0,0,275.5,89a13.3,13.3,0,0,0-3.5-2.09,35.24,35.24,0,0,0-4.72-1.57c-1.5-.4-2.74-.75-3.73-1a10.8,10.8,0,0,1-2.32-1,2.92,2.92,0,0,1-1.18-1.12,3.19,3.19,0,0,1-.32-1.47v-.1a2.66,2.66,0,0,1,1.12-2.17,5.45,5.45,0,0,1,3.37-.87,11.78,11.78,0,0,1,4.48.92,25.64,25.64,0,0,1,4.59,2.52l4-5.78A20.45,20.45,0,0,0,271.37,72a20.69,20.69,0,0,0-7.05-1.15,15.41,15.41,0,0,0-4.93.75,11.35,11.35,0,0,0-3.85,2.14A9.93,9.93,0,0,0,253,77a10.19,10.19,0,0,0-.89,4.31v.1a10.15,10.15,0,0,0,.83,4.34,8,8,0,0,0,2.32,2.91,13.3,13.3,0,0,0,3.65,2,43.14,43.14,0,0,0,4.8,1.45,32.88,32.88,0,0,1,3.57,1,10.77,10.77,0,0,1,2.15,1,2.79,2.79,0,0,1,1,1.07,3,3,0,0,1,.28,1.33v.1A2.73,2.73,0,0,1,269.48,99.07Z"/><rect class="cls-1" x="283.96" y="98.25" width="8.03" height="7.98"/><path class="cls-1" d="M311.28,71.08l-15,35.15h7.83l3.19-7.83H322.1l3.19,7.83h8L318.36,71.08Zm-1.2,20.54,4.64-11.32,4.63,11.32Z"/><rect class="cls-1" x="337.6" y="98.25" width="8.03" height="7.98"/><path class="cls-1" d="M64.56,115.85a4.88,4.88,0,0,1,3.53,1.58l1-1a6.35,6.35,0,0,0-4.5-1.91,6.47,6.47,0,0,0,0,12.94,6.39,6.39,0,0,0,4.5-1.91l-1-1a4.88,4.88,0,0,1-3.53,1.58,5.16,5.16,0,0,1,0-10.32Z"/><path class="cls-1" d="M75.33,117.63a4.93,4.93,0,1,0,4.86,4.92A5,5,0,0,0,75.33,117.63Zm0,8.63a3.72,3.72,0,1,1,3.42-3.71A3.62,3.62,0,0,1,75.33,126.26Z"/><path class="cls-1" d="M86.92,117.63a3.58,3.58,0,0,0-3.09,1.73v-1.51H82.46v9.42h1.37v-6a2.74,2.74,0,0,1,2.91-2.43,2.39,2.39,0,0,1,2.35,2.61v5.81h1.37v-6A3.45,3.45,0,0,0,86.92,117.63Z"/><path class="cls-1" d="M96.91,121.88c-1.74-.57-2.44-.82-2.44-1.64s.88-1.39,1.93-1.39a5.18,5.18,0,0,1,2.72.9l.65-1.06a6.32,6.32,0,0,0-3.37-1.06c-1.87,0-3.29,1.06-3.29,2.77,0,1.35.87,2,3.15,2.68,1.27.36,2.36.69,2.36,1.71s-.83,1.47-2.07,1.47a5.48,5.48,0,0,1-3.19-1.18l-.71,1a6.41,6.41,0,0,0,3.9,1.4c2,0,3.44-1.11,3.44-2.84S98.42,122.35,96.91,121.88Z"/><path class="cls-1" d="M105.39,126.26a1.1,1.1,0,0,1-1-1.18v-6h2.32v-1.22h-2.32v-2.58H103v2.58h-1.48v1.22H103v6a2.25,2.25,0,0,0,2.29,2.4,2.81,2.81,0,0,0,1.75-.6l-.67-1A1.36,1.36,0,0,1,105.39,126.26Z"/><path class="cls-1" d="M110.47,119.69v-1.84H109.1v9.42h1.37V122c0-1.83,1.51-3.15,3.64-3.15v-1.22A3.8,3.8,0,0,0,110.47,119.69Z"/><path class="cls-1" d="M122.63,123.84a2.74,2.74,0,0,1-2.92,2.42,2.37,2.37,0,0,1-2.34-2.6v-5.81H116v6a3.44,3.44,0,0,0,3.53,3.64,3.56,3.56,0,0,0,3.1-1.73v1.52H124v-9.42h-1.36Z"/><path class="cls-1" d="M131.14,126.26a3.72,3.72,0,0,1,0-7.41,3.27,3.27,0,0,1,2.41,1.1l.94-.93a4.82,4.82,0,0,0-3.35-1.39,4.93,4.93,0,0,0,0,9.85,4.84,4.84,0,0,0,3.41-1.43l-1-.93A3.31,3.31,0,0,1,131.14,126.26Z"/><path class="cls-1" d="M141,126.26a3.71,3.71,0,0,1,0-7.41,3.27,3.27,0,0,1,2.4,1.1l1-.93a4.86,4.86,0,0,0-3.35-1.39,4.93,4.93,0,0,0,0,9.85,4.8,4.8,0,0,0,3.4-1.43l-.95-.93A3.29,3.29,0,0,1,141,126.26Z"/><rect class="cls-1" x="146.48" y="117.85" width="1.37" height="9.41"/><path class="cls-1" d="M147.17,114.34a.9.9,0,1,0,.89.89A.91.91,0,0,0,147.17,114.34Z"/><path class="cls-1" d="M155,117.63a4.93,4.93,0,1,0,4.86,4.92A5,5,0,0,0,155,117.63Zm0,8.63a3.72,3.72,0,1,1,3.43-3.71A3.62,3.62,0,0,1,155,126.26Z"/><path class="cls-1" d="M166.55,117.63a3.58,3.58,0,0,0-3.09,1.73v-1.51h-1.37v9.42h1.37v-6a2.74,2.74,0,0,1,2.91-2.43,2.38,2.38,0,0,1,2.35,2.61v5.81h1.37v-6A3.45,3.45,0,0,0,166.55,117.63Z"/><path class="cls-1" d="M177,117.63a4.74,4.74,0,0,0-4.64,4.9,4.84,4.84,0,0,0,4.77,5A5.64,5.64,0,0,0,180.9,126l-.84-.89a4.45,4.45,0,0,1-3,1.12,3.33,3.33,0,0,1-3.35-3.18h7.7C181.44,119.78,179.82,117.63,177,117.63Zm-3.22,4.23a3.29,3.29,0,0,1,3.28-3,3,3,0,0,1,3.05,3Z"/><path class="cls-1" d="M187.37,121.88c-1.75-.57-2.44-.82-2.44-1.64s.87-1.39,1.93-1.39a5.13,5.13,0,0,1,2.71.9l.66-1.06a6.32,6.32,0,0,0-3.37-1.06c-1.87,0-3.29,1.06-3.29,2.77,0,1.35.87,2,3.15,2.68,1.27.36,2.36.69,2.36,1.71s-.84,1.47-2.07,1.47a5.46,5.46,0,0,1-3.19-1.18l-.71,1a6.41,6.41,0,0,0,3.9,1.4c1.94,0,3.44-1.11,3.44-2.84S188.88,122.35,187.37,121.88Z"/><path class="cls-1" d="M202,125.68l-3.3-7.83h-1.51l4.1,9.45-.55,1.17a1.39,1.39,0,0,1-1.36.84,2.56,2.56,0,0,1-1.12-.24l-.32,1.16a3.54,3.54,0,0,0,1.49.31c1.29,0,2.2-.62,2.86-2.22l4.3-10.47h-1.48Z"/><path class="cls-1" d="M217.74,121.88c-1.75-.57-2.44-.82-2.44-1.64s.87-1.39,1.93-1.39a5.13,5.13,0,0,1,2.71.9l.66-1.06a6.32,6.32,0,0,0-3.37-1.06c-1.87,0-3.29,1.06-3.29,2.77,0,1.35.87,2,3.15,2.68,1.27.36,2.36.69,2.36,1.71s-.84,1.47-2.07,1.47a5.46,5.46,0,0,1-3.19-1.18l-.71,1a6.41,6.41,0,0,0,3.9,1.4c2,0,3.44-1.11,3.44-2.84S219.25,122.35,217.74,121.88Z"/><path class="cls-1" d="M227.2,117.63a4.74,4.74,0,0,0-4.64,4.9,4.84,4.84,0,0,0,4.77,5,5.64,5.64,0,0,0,3.79-1.45l-.84-.89a4.45,4.45,0,0,1-3,1.12,3.34,3.34,0,0,1-3.35-3.18h7.7C231.66,119.78,230,117.63,227.2,117.63ZM224,121.86a3.3,3.3,0,0,1,3.28-3,3,3,0,0,1,3.06,3Z"/><path class="cls-1" d="M235.39,119.69v-1.84H234v9.42h1.36V122c0-1.83,1.51-3.15,3.64-3.15v-1.22A3.81,3.81,0,0,0,235.39,119.69Z"/><polygon class="cls-1" points="244.69 125.66 241.56 117.85 240.03 117.85 244.03 127.27 245.35 127.27 249.3 117.85 247.77 117.85 244.69 125.66"/><path class="cls-1" d="M251.84,114.34a.9.9,0,1,0,.89.89A.91.91,0,0,0,251.84,114.34Z"/><rect class="cls-1" x="251.15" y="117.85" width="1.37" height="9.41"/><path class="cls-1" d="M259.63,126.26a3.72,3.72,0,0,1,0-7.41A3.23,3.23,0,0,1,262,120l1-.93a4.82,4.82,0,0,0-3.35-1.39,4.93,4.93,0,0,0,0,9.85,4.84,4.84,0,0,0,3.41-1.43l-1-.93A3.31,3.31,0,0,1,259.63,126.26Z"/><path class="cls-1" d="M265.8,114.34a.9.9,0,1,0,.89.89A.91.91,0,0,0,265.8,114.34Z"/><rect class="cls-1" x="265.11" y="117.85" width="1.37" height="9.41"/><path class="cls-1" d="M273.59,117.63a4.93,4.93,0,1,0,4.86,4.92A5,5,0,0,0,273.59,117.63Zm0,8.63a3.72,3.72,0,1,1,3.42-3.71A3.61,3.61,0,0,1,273.59,126.26Z"/><path class="cls-1" d="M284.4,121.88c-1.75-.57-2.44-.82-2.44-1.64s.87-1.39,1.93-1.39a5.18,5.18,0,0,1,2.71.9l.66-1.06a6.38,6.38,0,0,0-3.37-1.06c-1.88,0-3.3,1.06-3.3,2.77,0,1.35.88,2,3.15,2.68,1.28.36,2.37.69,2.37,1.71s-.84,1.47-2.08,1.47a5.43,5.43,0,0,1-3.18-1.18l-.71,1a6.38,6.38,0,0,0,3.89,1.4c2,0,3.44-1.11,3.44-2.84S285.91,122.35,284.4,121.88Z"/><path class="cls-2" d="M217.46,78.26h-5.39a2.24,2.24,0,0,0-2.24,2.24V86a2.24,2.24,0,0,0,2.24,2.24h5.54A6.38,6.38,0,0,0,222,86.93a4.55,4.55,0,0,0,1.52-3.59v-.09a4.43,4.43,0,0,0-1.6-3.74A7,7,0,0,0,217.46,78.26Z"/><path class="cls-3" d="M159.2,89a13.3,13.3,0,0,0-3.5-2.09A35.4,35.4,0,0,0,151,85.34q-2.25-.6-3.72-1a10.91,10.91,0,0,1-2.33-1,3,3,0,0,1-1.17-1.12,3.07,3.07,0,0,1-.33-1.47v-.1a2.67,2.67,0,0,1,1.13-2.17,5.42,5.42,0,0,1,3.36-.87,11.82,11.82,0,0,1,4.49.92c.75.31,1.5.68,2.27,1.09a3,3,0,0,0,3.9-.87l.7-1a3,3,0,0,0-1-4.3,21.51,21.51,0,0,0-3.2-1.46A20.79,20.79,0,0,0,148,70.83a15.45,15.45,0,0,0-4.93.75,11.21,11.21,0,0,0-3.84,2.14,9.8,9.8,0,0,0-2.5,3.32,10,10,0,0,0-.89,4.31v.1a10.15,10.15,0,0,0,.82,4.34A8,8,0,0,0,139,88.7a13.23,13.23,0,0,0,3.64,2,44.48,44.48,0,0,0,4.8,1.45,33.85,33.85,0,0,1,3.58,1,11.34,11.34,0,0,1,2.15,1,2.94,2.94,0,0,1,1.05,1.07,3.13,3.13,0,0,1,.27,1.33v.1a2.73,2.73,0,0,1-1.32,2.41,6.63,6.63,0,0,1-3.71.88A13.19,13.19,0,0,1,144,98.8a20.73,20.73,0,0,1-2.82-1.56,2.88,2.88,0,0,0-3.81.53l-.84,1a3,3,0,0,0,.65,4.41,20.51,20.51,0,0,0,4.35,2.16,23,23,0,0,0,7.83,1.38,17.45,17.45,0,0,0,5.17-.73,11.81,11.81,0,0,0,4-2.09,9.44,9.44,0,0,0,2.63-3.39,10.76,10.76,0,0,0,.94-4.61v-.1a9.62,9.62,0,0,0-.73-3.94A8,8,0,0,0,159.2,89Z"/><path class="cls-4" d="M192.91,99.4H178.69A2.36,2.36,0,0,1,176.33,97v-2.6a2.36,2.36,0,0,1,2.36-2.36h11.73a2.36,2.36,0,0,0,2.36-2.36V87.6a2.36,2.36,0,0,0-2.36-2.36H178.69a2.36,2.36,0,0,1-2.36-2.36V80.52a2.36,2.36,0,0,1,2.36-2.36h14A2.36,2.36,0,0,0,195,75.8V73.69a2.36,2.36,0,0,0-2.36-2.36H171.11a2.36,2.36,0,0,0-2.36,2.36v30.17a2.37,2.37,0,0,0,2.36,2.37h21.8a2.37,2.37,0,0,0,2.36-2.37v-2.1A2.36,2.36,0,0,0,192.91,99.4Z"/><path class="cls-5" d="M225.87,92.77a11.5,11.5,0,0,0,3.33-2.92,11,11,0,0,0,2.07-6.9v-.1a10.69,10.69,0,0,0-3.47-8.48q-3.47-3-9.7-3H204.39a2.24,2.24,0,0,0-2.24,2.24V104a2.25,2.25,0,0,0,2.24,2.25h3.2a2.25,2.25,0,0,0,2.24-2.25V97.3a2.24,2.24,0,0,1,2.24-2.24h2.59a2.24,2.24,0,0,1,1.87,1l6.14,9.17a2.27,2.27,0,0,0,1.87,1h3.52a2.24,2.24,0,0,0,1.85-3.51l-4.7-6.88A2.16,2.16,0,0,1,225.87,92.77Zm-2.38-9.43A4.55,4.55,0,0,1,222,86.93a6.38,6.38,0,0,1-4.36,1.35h-5.54A2.24,2.24,0,0,1,209.83,86V80.5a2.24,2.24,0,0,1,2.24-2.24h5.39a7,7,0,0,1,4.43,1.25,4.43,4.43,0,0,1,1.6,3.74Z"/><path class="cls-6" d="M148.81,8.33a19.5,19.5,0,0,0-1.61,19.45l0-.08a15.3,15.3,0,0,1-.55-4.09,15.13,15.13,0,0,1,1.67-6.94A15.28,15.28,0,0,1,162,8.33h35.31l3-8.33H164.77A19.46,19.46,0,0,0,148.81,8.33Z"/><path class="cls-7" d="M148.35,16.67a15.13,15.13,0,0,0-1.67,6.94,15.3,15.3,0,0,0,.55,4.09l.12-.23a15.27,15.27,0,0,1,14.42-10.8h32.46l3-8.34H162A15.28,15.28,0,0,0,148.35,16.67Z"/><path class="cls-8" d="M148.35,38.89A15.28,15.28,0,0,0,162,47.23h21.15l3-8.34H162a15.28,15.28,0,0,1-14.61-10.8l-.12-.23a15.3,15.3,0,0,0-.55,4.09A15.13,15.13,0,0,0,148.35,38.89Z"/><path class="cls-7" d="M145.52,38.89a19.44,19.44,0,0,0,19.25,16.67h15.31l3-8.33H162a15.28,15.28,0,0,1-13.61-8.34A15.13,15.13,0,0,1,146.68,32a15.3,15.3,0,0,1,.55-4.09l0-.08a19.71,19.71,0,0,0-1.68,11.11Z"/></g></g></svg>