<svg xmlns="http://www.w3.org/2000/svg" xmlns:xlink="http://www.w3.org/1999/xlink" viewBox="0 0 412.43 416.79"><defs><style>.cls-1{fill:url(#Degradado_sin_nombre_19);}.cls-2{fill:#ee7121;}.cls-3{fill:url(#Degradado_sin_nombre_19-2);}</style><linearGradient id="Degradado_sin_nombre_19" y1="104.2" x2="490.42" y2="104.2" gradientUnits="userSpaceOnUse"><stop offset="0" stop-color="#f6a117"/><stop offset="0.11" stop-color="#f69f18"/><stop offset="0.17" stop-color="#f4971c"/><stop offset="0.31" stop-color="#f3931d"/><stop offset="0.44" stop-color="#f18821"/><stop offset="0.47" stop-color="#f08322"/></linearGradient><linearGradient id="Degradado_sin_nombre_19-2" x1="10.17" y1="281.64" x2="306.23" y2="281.64" xlink:href="#Degradado_sin_nombre_19"/></defs><g id="Capa_2" data-name="Capa 2"><g id="Capa_1-2" data-name="Capa 1"><path class="cls-1" d="M145.9,0A146,146,0,0,0,14,208.41c.09-.2.17-.39.28-.61A114.65,114.65,0,0,1,124.82,62.51H389.69L412.43,0Z"/><path class="cls-2" d="M22.68,125a115,115,0,0,0-8.36,82.76c.28-.58.56-1.16.86-1.75a114.65,114.65,0,0,1,108.17-81c.5,0,1,0,1.47,0s1,0,1.49,0H144c.63,0,1.25,0,1.88,0s1.25,0,1.88,0H366.92l22.77-62.53H124.82A114.61,114.61,0,0,0,22.68,125Z"/><path class="cls-3" d="M22.68,291.78a114.65,114.65,0,0,0,102.14,62.51H283.48l22.75-62.51H124.82a114.72,114.72,0,0,1-109.64-81c-.3-.58-.58-1.17-.86-1.75a115,115,0,0,0,8.36,82.79Z"/><path class="cls-2" d="M1.49,291.78a145.86,145.86,0,0,0,144.41,125H260.72l22.76-62.5H124.82A114.72,114.72,0,0,1,14.32,209c-.11-.19-.19-.39-.28-.58A146.32,146.32,0,0,0,1.49,291.78Z"/></g></g></svg>