<svg xmlns="http://www.w3.org/2000/svg" xmlns:xlink="http://www.w3.org/1999/xlink" viewBox="0 0 650.63 119.4"><defs><style>.cls-1{fill:#f2f3f5;}.cls-2{fill:none;}.cls-3{fill:url(#Degradado_sin_nombre_19);}.cls-4{fill:url(#Degradado_sin_nombre_19-2);}.cls-5{fill:url(#Degradado_sin_nombre_19-3);}.cls-6{fill:url(#Degradado_sin_nombre_19-4);}.cls-7{fill:#ee7121;}.cls-8{fill:url(#Degradado_sin_nombre_19-5);}</style><linearGradient id="Degradado_sin_nombre_19" x1="-4724.01" y1="1611.53" x2="-4667.52" y2="1611.53" gradientTransform="translate(5169.43 -1550.76)" gradientUnits="userSpaceOnUse"><stop offset="0" stop-color="#f6a117"/><stop offset="0.11" stop-color="#f69f18"/><stop offset="0.17" stop-color="#f4971c"/><stop offset="0.31" stop-color="#f3931d"/><stop offset="0.44" stop-color="#f18821"/><stop offset="0.47" stop-color="#f08322"/></linearGradient><linearGradient id="Degradado_sin_nombre_19-2" x1="-4653.16" y1="1611.53" x2="-4596.16" y2="1611.53" xlink:href="#Degradado_sin_nombre_19"/><linearGradient id="Degradado_sin_nombre_19-3" x1="-4581.37" y1="1611.53" x2="-4518.8" y2="1611.53" xlink:href="#Degradado_sin_nombre_19"/><linearGradient id="Degradado_sin_nombre_19-4" x1="-5169.43" y1="1580.61" x2="-5028.93" y2="1580.61" xlink:href="#Degradado_sin_nombre_19"/><linearGradient id="Degradado_sin_nombre_19-5" x1="-5166.52" y1="1631.44" x2="-5081.7" y2="1631.44" xlink:href="#Degradado_sin_nombre_19"/></defs><g id="Capa_2" data-name="Capa 2"><g id="Capa_1-2" data-name="Capa 1"><path class="cls-1" d="M216.8,91.74a53.62,53.62,0,0,0,6-5.57L212.3,75.56A42.23,42.23,0,0,1,203.46,82a23,23,0,0,1-10.87,2.36,20.66,20.66,0,0,1-15.7-7,23.81,23.81,0,0,1-4.44-7.5,25.5,25.5,0,0,1-1.61-9.11v-.21a25.1,25.1,0,0,1,1.61-9.05,23.31,23.31,0,0,1,4.5-7.45,20.69,20.69,0,0,1,6.91-5,21,21,0,0,1,8.73-1.82,22.81,22.81,0,0,1,10.23,2.25,39.77,39.77,0,0,1,9,6.22l10.5-12.11a45.1,45.1,0,0,0-5.57-4.72,34.55,34.55,0,0,0-6.54-3.64,40,40,0,0,0-7.87-2.35A49,49,0,0,0,192.7,22,40,40,0,0,0,176.84,25a37.22,37.22,0,0,0-12.32,8.36,38.63,38.63,0,0,0-8,12.32,39.09,39.09,0,0,0-2.89,15.05V61a39.51,39.51,0,0,0,2.89,15.11,37.05,37.05,0,0,0,20.25,20.46,38.84,38.84,0,0,0,15.32,3,48.53,48.53,0,0,0,9.86-.91A35.42,35.42,0,0,0,210,96,35.94,35.94,0,0,0,216.8,91.74Z"/><path class="cls-1" d="M272.41,99.56a41.38,41.38,0,0,0,16-3,38.37,38.37,0,0,0,20.94-20.68,37.92,37.92,0,0,0,3-15.06v-.21a38.51,38.51,0,0,0-2.95-15.05,37,37,0,0,0-8.25-12.22A39.86,39.86,0,0,0,288.59,25a43.44,43.44,0,0,0-32,0,38.35,38.35,0,0,0-21,20.68,37.9,37.9,0,0,0-3,15.05V61a38.33,38.33,0,0,0,3,15.05,36.85,36.85,0,0,0,8.25,12.22,39.75,39.75,0,0,0,12.59,8.25A40.93,40.93,0,0,0,272.41,99.56ZM251.57,69.88a24.89,24.89,0,0,1-1.66-9.11v-.21a24.49,24.49,0,0,1,1.66-9.05,23.58,23.58,0,0,1,4.61-7.45,21,21,0,0,1,7.07-5,22.49,22.49,0,0,1,9.16-1.82,22,22,0,0,1,9.11,1.88,22.65,22.65,0,0,1,7.23,5.09,22.4,22.4,0,0,1,4.71,7.5,24.88,24.88,0,0,1,1.67,9.1V61A24.5,24.5,0,0,1,293.46,70a23.67,23.67,0,0,1-4.6,7.45,20.82,20.82,0,0,1-7.13,5,22.42,22.42,0,0,1-9.1,1.83,21.92,21.92,0,0,1-9.17-1.88,22.68,22.68,0,0,1-11.89-12.59Z"/><polygon class="cls-1" points="343.34 50.59 379.66 98.27 393.7 98.27 393.7 23.27 377.41 23.27 377.41 69.45 342.27 23.27 327.05 23.27 327.05 98.27 343.34 98.27 343.34 50.59"/><rect class="cls-1" x="412.45" y="23.27" width="16.5" height="75"/><path class="cls-2" d="M621,38.17H609.38A4.82,4.82,0,0,0,604.56,43V54.88a4.82,4.82,0,0,0,4.82,4.82h11.89q6.11,0,9.38-2.89a9.79,9.79,0,0,0,3.27-7.71v-.22c0-3.57-1.15-6.25-3.43-8S625,38.17,621,38.17Z"/><path class="cls-3" d="M495.74,61.26a28.51,28.51,0,0,0-7.52-4.5,77,77,0,0,0-10.16-3.38q-4.83-1.29-8-2.25a23.72,23.72,0,0,1-5-2,6.37,6.37,0,0,1-2.53-2.42,6.79,6.79,0,0,1-.7-3.16v-.21a5.68,5.68,0,0,1,2.41-4.66q2.42-1.87,7.24-1.88a25.07,25.07,0,0,1,9.64,2A48.92,48.92,0,0,1,486,41.1a6.38,6.38,0,0,0,8.39-1.88l1.51-2.17a6.42,6.42,0,0,0-2.15-9.23,42.5,42.5,0,0,0-6.89-3.15A44.68,44.68,0,0,0,471.7,22.2a33.23,33.23,0,0,0-10.59,1.61,24.07,24.07,0,0,0-8.26,4.61,21.08,21.08,0,0,0-5.38,7.12,21.71,21.71,0,0,0-1.91,9.27V45a21.81,21.81,0,0,0,1.77,9.33,17,17,0,0,0,5,6.26,29,29,0,0,0,7.85,4.23A90.2,90.2,0,0,0,470.48,68q4.72,1.18,7.68,2.25a23.61,23.61,0,0,1,4.62,2.15,6,6,0,0,1,2.26,2.3,6.55,6.55,0,0,1,.59,2.84v.21a5.91,5.91,0,0,1-2.84,5.2c-1.89,1.25-4.56,1.87-8,1.87A28.23,28.23,0,0,1,463,82.31,45.35,45.35,0,0,1,456.91,79a6.22,6.22,0,0,0-8.2,1.14l-1.8,2.16a6.43,6.43,0,0,0,1.41,9.48,44,44,0,0,0,9.34,4.66,49.79,49.79,0,0,0,16.82,2.95,37.38,37.38,0,0,0,11.13-1.56,25.16,25.16,0,0,0,8.64-4.5A20.35,20.35,0,0,0,499.89,86a23.21,23.21,0,0,0,2-9.91v-.22a21,21,0,0,0-1.55-8.46A17.17,17.17,0,0,0,495.74,61.26Z"/><path class="cls-4" d="M568.19,83.6H537.63a5.08,5.08,0,0,1-5.07-5.08v-5.6a5.07,5.07,0,0,1,5.07-5.07h25.21a5.08,5.08,0,0,0,5.07-5.08V58.25a5.07,5.07,0,0,0-5.07-5.08H537.63a5.08,5.08,0,0,1-5.07-5.08V43A5.08,5.08,0,0,1,537.63,38h30a5.08,5.08,0,0,0,5.08-5.08V28.35a5.09,5.09,0,0,0-5.08-5.08H521.35a5.08,5.08,0,0,0-5.08,5.08V93.2a5.07,5.07,0,0,0,5.08,5.07h46.84a5.07,5.07,0,0,0,5.08-5.07V88.67A5.07,5.07,0,0,0,568.19,83.6Z"/><path class="cls-5" d="M639.05,69.36a25.08,25.08,0,0,0,7.13-6.28q4.46-5.73,4.45-14.84V48q0-11.67-7.45-18.21t-20.84-6.54H592.88a4.82,4.82,0,0,0-4.82,4.82V93.45a4.82,4.82,0,0,0,4.82,4.82h6.86a4.82,4.82,0,0,0,4.82-4.82V79.09a4.82,4.82,0,0,1,4.82-4.82H615a4.82,4.82,0,0,1,4,2.14l13.21,19.73a4.84,4.84,0,0,0,4,2.13h7.57a4.82,4.82,0,0,0,4-7.54L637.61,76A4.62,4.62,0,0,1,639.05,69.36ZM633.92,49.1a9.79,9.79,0,0,1-3.27,7.71q-3.27,2.89-9.38,2.89H609.38a4.82,4.82,0,0,1-4.82-4.82V43a4.82,4.82,0,0,1,4.82-4.82H621q6.1,0,9.54,2.67c2.28,1.79,3.43,4.47,3.43,8Z"/><path class="cls-6" d="M7.49,17.91A41.49,41.49,0,0,0,.43,35.82a40.53,40.53,0,0,0-.43,6A41.66,41.66,0,0,0,4,59.71l.08-.18A32.85,32.85,0,0,1,35.76,17.91h75.88L118.15,0H41.8A41.79,41.79,0,0,0,7.49,17.91Z"/><path class="cls-7" d="M6.5,35.82A32.89,32.89,0,0,0,4.1,59.53l.25-.5a32.84,32.84,0,0,1,31-23.21h69.78l6.52-17.91H35.76A32.82,32.82,0,0,0,6.5,35.82Z"/><path class="cls-8" d="M6.5,83.59A32.85,32.85,0,0,0,35.76,101.5H81.21l6.52-17.91h-52A32.87,32.87,0,0,1,4.35,60.37c-.09-.16-.17-.33-.25-.5a33.07,33.07,0,0,0-1.19,8.79A32.7,32.7,0,0,0,6.5,83.59Z"/><path class="cls-7" d="M.43,83.59A41.76,41.76,0,0,0,41.8,119.4H74.69l6.52-17.9H35.76A32.87,32.87,0,0,1,4.1,59.87s0-.11-.08-.16a41.57,41.57,0,0,0-4,17.9A40.67,40.67,0,0,0,.43,83.59Z"/></g></g></svg>